<svg width="34" height="36" viewBox="0 0 34 36" fill="none" xmlns="http://www.w3.org/2000/svg">
<path d="M17.0026 3C9.1826 3 2.83594 9.72 2.83594 18C2.83594 26.28 9.1826 33 17.0026 33C24.8226 33 31.1693 26.28 31.1693 18C31.1693 9.72 24.8226 3 17.0026 3ZM10.0184 27.42C10.6276 26.07 14.3393 24.75 17.0026 24.75C19.6659 24.75 23.3918 26.07 23.9868 27.42C22.0601 29.04 19.6376 30 17.0026 30C14.3676 30 11.9451 29.04 10.0184 27.42ZM26.0126 25.245C23.9868 22.635 19.0709 21.75 17.0026 21.75C14.9343 21.75 10.0184 22.635 7.9926 25.245C6.5476 23.235 5.66927 20.73 5.66927 18C5.66927 11.385 10.7551 6 17.0026 6C23.2501 6 28.3359 11.385 28.3359 18C28.3359 20.73 27.4576 23.235 26.0126 25.245ZM17.0026 9C14.2543 9 12.0443 11.34 12.0443 14.25C12.0443 17.16 14.2543 19.5 17.0026 19.5C19.7509 19.5 21.9609 17.16 21.9609 14.25C21.9609 11.34 19.7509 9 17.0026 9ZM17.0026 16.5C15.8268 16.5 14.8776 15.495 14.8776 14.25C14.8776 13.005 15.8268 12 17.0026 12C18.1784 12 19.1276 13.005 19.1276 14.25C19.1276 15.495 18.1784 16.5 17.0026 16.5Z" fill="#A91F8C"/>
</svg>
