<svg width="17" height="17" viewBox="0 0 17 17" fill="none" xmlns="http://www.w3.org/2000/svg">
<path d="M0.398438 14.3998C0.398438 15.7598 1.43844 16.7998 2.79844 16.7998H13.9984C15.3584 16.7998 16.3984 15.7598 16.3984 14.3998V7.9998H0.398438V14.3998ZM13.9984 2.3998H12.3984V1.5998C12.3984 1.1198 12.0784 0.799805 11.5984 0.799805C11.1184 0.799805 10.7984 1.1198 10.7984 1.5998V2.3998H5.99844V1.5998C5.99844 1.1198 5.67844 0.799805 5.19844 0.799805C4.71844 0.799805 4.39844 1.1198 4.39844 1.5998V2.3998H2.79844C1.43844 2.3998 0.398438 3.4398 0.398438 4.7998V6.3998H16.3984V4.7998C16.3984 3.4398 15.3584 2.3998 13.9984 2.3998Z" fill="#1C1C1C"/>
</svg>
