<svg width="32" height="31" viewBox="0 0 32 31" fill="none" xmlns="http://www.w3.org/2000/svg">
<ellipse cx="15.8334" cy="15.3486" rx="15.3334" ry="15.3486" fill="#A91F8C"/>
<g clip-path="url(#clip0_1208_32889)">
<mask id="mask0_1208_32889" style="mask-type:alpha" maskUnits="userSpaceOnUse" x="7" y="7" width="17" height="16">
<path fill-rule="evenodd" clip-rule="evenodd" d="M12.4766 21.4069C12.4766 20.6633 13.0788 20.0605 13.8216 20.0605C14.5644 20.0605 15.1666 20.6633 15.1666 21.4069C15.1666 22.1505 14.5644 22.7533 13.8216 22.7533C13.0788 22.7533 12.4766 22.1505 12.4766 21.4069Z" fill="#7A869A"/>
<path fill-rule="evenodd" clip-rule="evenodd" d="M19.8672 21.4069C19.8672 20.6633 20.4694 20.0605 21.2122 20.0605C21.9551 20.0605 22.5573 20.6633 22.5573 21.4069C22.5573 22.1505 21.9551 22.7533 21.2122 22.7533C20.4694 22.7533 19.8672 22.1505 19.8672 21.4069Z" fill="#7A869A"/>
<path fill-rule="evenodd" clip-rule="evenodd" d="M7.76562 7.94369C7.76562 7.5719 8.06672 7.27051 8.43814 7.27051H11.1282C11.4488 7.27051 11.7247 7.49696 11.7877 7.81157L12.3525 10.6364H23.2335C23.434 10.6364 23.6239 10.7259 23.7517 10.8805C23.8795 11.0351 23.9317 11.2386 23.8941 11.4357L22.8171 17.0888C22.7249 17.5537 22.4722 17.9713 22.1034 18.2685C21.7364 18.5642 21.2776 18.722 20.8066 18.7146H14.2814C13.8105 18.722 13.3517 18.5642 12.9847 18.2685C12.616 17.9714 12.3634 17.554 12.271 17.0893C12.271 17.0891 12.2711 17.0895 12.271 17.0893L11.1476 11.4706C11.143 11.452 11.1392 11.4332 11.1363 11.414L10.577 8.61687H8.43814C8.06672 8.61687 7.76562 8.31548 7.76562 7.94369ZM12.6217 11.9828L13.5902 16.8265C13.6209 16.9814 13.7052 17.1206 13.8281 17.2197C13.9511 17.3188 14.1049 17.3714 14.2627 17.3684L14.2756 17.3683H20.8125L20.8253 17.3684C20.9832 17.3714 21.137 17.3188 21.2599 17.2197C21.3823 17.1211 21.4663 16.9827 21.4974 16.8286L22.4206 11.9828H12.6217Z" fill="#7A869A"/>
</mask>
<g mask="url(#mask0_1208_32889)">
<rect x="7.76562" y="7.27051" width="16.1404" height="16.1564" fill="#FCFCFD"/>
</g>
</g>
<defs>
<clipPath id="clip0_1208_32889">
<rect width="16.1404" height="16.1564" fill="white" transform="translate(7.76562 7.27051)"/>
</clipPath>
</defs>
</svg>
