<svg width="20" height="21" viewBox="0 0 20 21" fill="none" xmlns="http://www.w3.org/2000/svg">
<path d="M3.61842 6.77368L4.16579 6.21579C4.77632 5.60526 5.78684 5.60526 6.41842 6.25789L6.43947 6.28947C6.95526 6.81579 7.63947 7.06842 8.38684 7.14211C9.4079 7.23684 10.3974 7.78421 11.05 8.77368C11.7658 9.91053 11.7553 11.4263 11.0079 12.5526C10.726 12.9984 10.3469 13.3746 9.89905 13.6532C9.45117 13.9317 8.94609 14.1053 8.42161 14.161C7.89714 14.2167 7.36686 14.153 6.87048 13.9747C6.3741 13.7965 5.92447 13.5082 5.55526 13.1316C4.96579 12.5526 4.62895 11.8053 4.54474 11.0263C4.46053 10.2579 4.15526 9.53158 3.61842 8.99474C3.00789 8.39474 3.00789 7.38421 3.61842 6.77368ZM8.03947 15.2368C6.8079 15.2368 5.66053 14.7632 4.8079 13.8895C4.07105 13.1316 3.60789 12.1842 3.49211 11.1526C3.46053 10.8368 3.36579 10.4263 3.11316 10.0474C2.48158 10.9211 2.10263 11.9737 2.10263 13.1316C2.10263 14.8579 2.94474 16.3842 4.23947 17.3421H17.8921V16.2895C17.8921 12.5 15.3763 9.28947 11.9342 8.23684C12.8711 9.71053 12.85 11.6789 11.8921 13.1316C11.05 14.4474 9.59737 15.2368 8.03947 15.2368ZM13.45 6.35263H14.7868C15.7026 6.35263 16.5026 6.99474 16.5026 8.14211V8.92105H17.8184V7.86842C17.8184 6.28947 16.4184 5.08947 14.7868 5.08947H13.45C12.5763 5.08947 11.8289 4.22632 11.8289 3.34211C11.8289 2.45789 12.5763 1.80526 13.45 1.80526V0.5C11.8289 0.5 10.5237 1.80526 10.5237 3.42632C10.5237 5.04737 11.8289 6.35263 13.45 6.35263ZM2.62895 6.34211C2.69211 6.23684 2.77632 6.13158 2.87105 6.02632L3.41842 5.47895C3.51316 5.38421 3.61842 5.31053 3.72368 5.23684L2.23947 3.73158C2.38684 3.44737 2.33421 3.07895 2.10263 2.83684C1.95189 2.69011 1.74984 2.608 1.53947 2.608C1.32911 2.608 1.12705 2.69011 0.976316 2.83684C0.828947 2.98421 0.755263 3.16316 0.744737 3.35263C0.555263 3.36316 0.376316 3.43684 0.228947 3.58421C-0.0763158 3.88947 -0.0763158 4.39474 0.228947 4.71053C0.471053 4.94211 0.828947 4.99474 1.12368 4.84737L2.62895 6.34211ZM17.25 3.01579C17.7868 2.47895 18.1237 1.75263 18.1237 0.942105H16.8079C16.8079 1.81579 16.0711 2.55263 15.1974 2.55263V3.85789C17.1553 3.85789 18.6921 5.45789 18.6921 7.41579V9.97368H19.9974V7.41579C20.0026 6.49759 19.7473 5.59674 19.2609 4.81788C18.7746 4.03903 18.0773 3.41413 17.25 3.01579ZM3.15526 20.5H17.8921C19.0605 20.5 19.9974 19.5632 19.9974 18.3947H1.05C1.05 18.9531 1.2718 19.4886 1.66662 19.8834C2.06143 20.2782 2.59691 20.5 3.15526 20.5Z" fill="#B74CA6"/>
</svg>
