<svg width="42" height="42" viewBox="0 0 42 42" fill="none" xmlns="http://www.w3.org/2000/svg">
<g clip-path="url(#clip0_1504_1306)">
<path d="M14.8233 18.9513C15.2522 17.6537 16.0799 16.5247 17.1884 15.7253C18.2969 14.926 19.6295 14.4971 20.9961 14.4999C22.5453 14.4999 23.946 15.0499 25.046 15.9501L28.247 12.75C26.2963 11.0496 23.7966 10 20.9961 10C16.6603 10 12.9276 12.4732 11.1328 16.0958L14.8233 18.9513Z" fill="#F3332C"/>
<path d="M24.7022 26.512C23.7031 27.1564 22.4344 27.5002 20.9989 27.5002C19.6377 27.503 18.3101 27.0775 17.2041 26.2841C16.0981 25.4907 15.2697 24.3694 14.8361 23.0791L11.1328 25.8905C12.0415 27.7296 13.4476 29.277 15.1916 30.357C16.9357 31.437 18.9476 32.0062 20.9989 32.0001C23.6875 32.0001 26.256 31.044 28.1801 29.2501L24.7031 26.512H24.7022Z" fill="#28B446"/>
<path d="M28.1812 29.2502C30.1932 27.3728 31.4995 24.5788 31.4995 21.0002C31.4995 20.3493 31.3996 19.6499 31.2502 19H21V23.2506H26.8997C26.6091 24.6797 25.8272 25.7861 24.7043 26.5121L28.1812 29.2502Z" fill="#1896F2"/>
<path d="M14.8374 23.0789C14.6131 22.4087 14.4992 21.7066 14.5 20.9999C14.5 20.283 14.6146 19.5946 14.8273 18.9511L11.1368 16.0957C10.3818 17.6198 9.99259 19.299 10.0001 20.9999C10.0001 22.7599 10.408 24.419 11.134 25.8903L14.8374 23.0789Z" fill="#FBBB00"/>
</g>
<g clip-path="url(#clip1_1504_1306)">
<path d="M14.8233 18.9513C15.2522 17.6537 16.0799 16.5247 17.1884 15.7253C18.2969 14.926 19.6295 14.4971 20.9961 14.4999C22.5453 14.4999 23.946 15.0499 25.046 15.9501L28.247 12.75C26.2963 11.0496 23.7966 10 20.9961 10C16.6603 10 12.9276 12.4732 11.1328 16.0958L14.8233 18.9513Z" fill="#F3332C"/>
<path d="M24.7022 26.512C23.7031 27.1564 22.4344 27.5002 20.9989 27.5002C19.6377 27.503 18.3101 27.0775 17.2041 26.2841C16.0981 25.4907 15.2697 24.3694 14.8361 23.0791L11.1328 25.8905C12.0415 27.7296 13.4476 29.277 15.1916 30.357C16.9357 31.437 18.9476 32.0062 20.9989 32.0001C23.6875 32.0001 26.256 31.044 28.1801 29.2501L24.7031 26.512H24.7022Z" fill="#28B446"/>
<path d="M28.1812 29.2502C30.1932 27.3728 31.4995 24.5788 31.4995 21.0002C31.4995 20.3493 31.3996 19.6499 31.2502 19H21V23.2506H26.8997C26.6091 24.6797 25.8272 25.7861 24.7043 26.5121L28.1812 29.2502Z" fill="#1896F2"/>
<path d="M14.8374 23.0789C14.6131 22.4087 14.4992 21.7066 14.5 20.9999C14.5 20.283 14.6146 19.5946 14.8273 18.9511L11.1368 16.0957C10.3818 17.6198 9.99259 19.299 10.0001 20.9999C10.0001 22.7599 10.408 24.419 11.134 25.8903L14.8374 23.0789Z" fill="#FBBB00"/>
</g>
<rect opacity="0.14" x="0.5" y="0.5" width="41" height="41" rx="20.5" fill="white" stroke="black"/>
<defs>
<clipPath id="clip0_1504_1306">
<rect width="22" height="22" fill="white" transform="translate(10 10)"/>
</clipPath>
<clipPath id="clip1_1504_1306">
<rect width="22" height="22" fill="white" transform="translate(10 10)"/>
</clipPath>
</defs>
</svg>
