<svg width="15" height="15" viewBox="0 0 15 15" fill="none" xmlns="http://www.w3.org/2000/svg">
<path d="M0.382812 11.9996C0.382812 13.1896 1.29281 14.0996 2.48281 14.0996H12.2828C13.4728 14.0996 14.3828 13.1896 14.3828 11.9996V6.39961H0.382812V11.9996ZM12.2828 1.49961H10.8828V0.799609C10.8828 0.379609 10.6028 0.0996094 10.1828 0.0996094C9.76281 0.0996094 9.48281 0.379609 9.48281 0.799609V1.49961H5.28281V0.799609C5.28281 0.379609 5.00281 0.0996094 4.58281 0.0996094C4.16281 0.0996094 3.88281 0.379609 3.88281 0.799609V1.49961H2.48281C1.29281 1.49961 0.382812 2.40961 0.382812 3.59961V4.99961H14.3828V3.59961C14.3828 2.40961 13.4728 1.49961 12.2828 1.49961Z" fill="#1C1C1C"/>
</svg>
