<svg width="17" height="15" viewBox="0 0 17 15" fill="none" xmlns="http://www.w3.org/2000/svg">
<path d="M12.4714 12.5441H14.0269V6.32183H9.36024V12.5441H10.9158V7.87739H12.4714V12.5441ZM1.58247 12.5441V0.877387C1.58247 0.671108 1.66441 0.473277 1.81027 0.327415C1.95613 0.181554 2.15396 0.0996094 2.36024 0.0996094H13.2491C13.4554 0.0996094 13.6532 0.181554 13.7991 0.327415C13.945 0.473277 14.0269 0.671108 14.0269 0.877387V4.76628H15.5825V12.5441H16.3602V14.0996H0.804688V12.5441H1.58247ZM4.69358 6.32183V7.87739H6.24913V6.32183H4.69358ZM4.69358 9.43294V10.9885H6.24913V9.43294H4.69358ZM4.69358 3.21072V4.76628H6.24913V3.21072H4.69358Z" fill="#1C1C1C"/>
</svg>
