<svg width="20" height="21" viewBox="0 0 20 21" fill="none" xmlns="http://www.w3.org/2000/svg">
<path d="M10 5.04545C11.4466 5.04545 12.834 5.62013 13.8569 6.64305C14.8799 7.66598 15.4545 9.05336 15.4545 10.5C15.4545 12.5182 14.3545 14.2818 12.7273 15.2273V16.8636C12.7273 17.1047 12.6315 17.336 12.461 17.5065C12.2905 17.677 12.0593 17.7727 11.8182 17.7727H8.18182C7.94071 17.7727 7.70948 17.677 7.53899 17.5065C7.36851 17.336 7.27273 17.1047 7.27273 16.8636V15.2273C5.64545 14.2818 4.54545 12.5182 4.54545 10.5C4.54545 9.05336 5.12013 7.66598 6.14305 6.64305C7.16598 5.62013 8.55336 5.04545 10 5.04545ZM11.8182 18.6818V19.5909C11.8182 19.832 11.7224 20.0632 11.5519 20.2337C11.3814 20.4042 11.1502 20.5 10.9091 20.5H9.09091C8.8498 20.5 8.61857 20.4042 8.44808 20.2337C8.2776 20.0632 8.18182 19.832 8.18182 19.5909V18.6818H11.8182ZM17.2727 9.59091H20V11.4091H17.2727V9.59091ZM0 9.59091H2.72727V11.4091H0V9.59091ZM10.9091 0.5V3.22727H9.09091V0.5H10.9091ZM3.56364 2.77273L5.5 4.71818L4.20909 6L2.27273 4.07273L3.56364 2.77273ZM14.5 4.70909L16.4273 2.77273L17.7273 4.07273L15.7909 6L14.5 4.70909Z" fill="#B74CA6"/>
</svg>
