<svg width="22" height="25" viewBox="0 0 22 25" fill="none" xmlns="http://www.w3.org/2000/svg">
<path d="M14.0544 12.5H7.57015M20.5386 12.5C20.5386 13.9281 20.287 15.3423 19.7982 16.6617C19.3094 17.9811 18.593 19.1799 17.6898 20.1898C16.7866 21.1996 15.7144 22.0007 14.5344 22.5472C13.3543 23.0937 12.0895 23.375 10.8123 23.375C9.53497 23.375 8.2702 23.0937 7.09015 22.5472C5.9101 22.0007 4.83788 21.1996 3.93471 20.1898C3.03154 19.1799 2.3151 17.9811 1.82631 16.6617C1.33752 15.3423 1.08594 13.9281 1.08594 12.5C1.08594 9.61577 2.11067 6.84967 3.93471 4.81021C5.75875 2.77076 8.23267 1.625 10.8123 1.625C13.3918 1.625 15.8658 2.77076 17.6898 4.81021C19.5138 6.84967 20.5386 9.61577 20.5386 12.5Z" stroke="#A91F8C" stroke-width="2" stroke-linecap="round" stroke-linejoin="round"/>
</svg>
