<svg width="23" height="25" viewBox="0 0 23 25" fill="none" xmlns="http://www.w3.org/2000/svg">
<path d="M11.5737 8.875V12.5M11.5737 12.5V16.125M11.5737 12.5H14.9316M11.5737 12.5H8.21579M21.6474 12.5C21.6474 13.9281 21.3868 15.3423 20.8806 16.6617C20.3743 17.9811 19.6323 19.1799 18.6969 20.1898C17.7614 21.1996 16.6509 22.0007 15.4287 22.5472C14.2065 23.0937 12.8966 23.375 11.5737 23.375C10.2508 23.375 8.94085 23.0937 7.71865 22.5472C6.49646 22.0007 5.38594 21.1996 4.45051 20.1898C3.51509 19.1799 2.77306 17.9811 2.26681 16.6617C1.76056 15.3423 1.5 13.9281 1.5 12.5C1.5 9.61577 2.56133 6.84967 4.45051 4.81021C6.3397 2.77076 8.90198 1.625 11.5737 1.625C14.2454 1.625 16.8077 2.77076 18.6969 4.81021C20.586 6.84967 21.6474 9.61577 21.6474 12.5Z" stroke="#A91F8C" stroke-width="2" stroke-linecap="round" stroke-linejoin="round"/>
</svg>
