<svg width="25" height="24" viewBox="0 0 25 24" fill="none" xmlns="http://www.w3.org/2000/svg">
<path d="M1.38889 24C0.995375 24 0.665282 23.808 0.398616 23.424C0.131949 23.04 -0.00092112 22.5653 4.80585e-06 22C4.80585e-06 21.4333 0.133338 20.958 0.400005 20.574C0.666671 20.19 0.996301 19.9987 1.38889 20H23.6111C24.0046 20 24.3347 20.192 24.6014 20.576C24.868 20.96 25.0009 21.4347 25 22C25 22.5667 24.8667 23.042 24.6 23.426C24.3333 23.81 24.0037 24.0013 23.6111 24H1.38889ZM1.38889 14C0.995375 14 0.665282 13.808 0.398616 13.424C0.131949 13.04 -0.00092112 12.5653 4.80585e-06 12C4.80585e-06 11.4333 0.133338 10.958 0.400005 10.574C0.666671 10.19 0.996301 9.99867 1.38889 10H23.6111C24.0046 10 24.3347 10.192 24.6014 10.576C24.868 10.96 25.0009 11.4347 25 12C25 12.5667 24.8667 13.042 24.6 13.426C24.3333 13.81 24.0037 14.0013 23.6111 14H1.38889ZM1.38889 4C0.995375 4 0.665282 3.808 0.398616 3.424C0.131949 3.04 -0.00092112 2.56534 4.80585e-06 2.00001C4.80585e-06 1.43334 0.133338 0.958007 0.400005 0.574007C0.666671 0.190007 0.996301 -0.00132641 1.38889 6.9204e-06H23.6111C24.0046 6.9204e-06 24.3347 0.192007 24.6014 0.576007C24.868 0.960007 25.0009 1.43467 25 2.00001C25 2.56667 24.8667 3.042 24.6 3.426C24.3333 3.81 24.0037 4.00134 23.6111 4H1.38889Z" fill="#A91F8C"/>
</svg>
