<svg width="37" height="34" viewBox="0 0 37 34" fill="none" xmlns="http://www.w3.org/2000/svg">
<path d="M29.7393 24.4945L27.7505 22.667V15.5837C27.7505 11.2345 25.2222 7.59366 20.813 6.63033V5.66699C20.813 4.49116 19.7801 3.54199 18.5005 3.54199C17.2209 3.54199 16.188 4.49116 16.188 5.66699V6.63033C11.7634 7.59366 9.25051 11.2203 9.25051 15.5837V22.667L7.26176 24.4945C6.29051 25.387 6.96884 26.917 8.34092 26.917H28.6447C30.0322 26.917 30.7105 25.387 29.7393 24.4945ZM24.6672 24.0837H12.3338V15.5837C12.3338 12.0703 14.6618 9.20866 18.5005 9.20866C22.3393 9.20866 24.6672 12.0703 24.6672 15.5837V24.0837ZM18.5005 31.167C20.1963 31.167 21.5838 29.892 21.5838 28.3337H15.4172C15.4172 29.892 16.7893 31.167 18.5005 31.167Z" fill="#A91F8C"/>
</svg>
