<svg width="22" height="21" viewBox="0 0 22 21" fill="none" xmlns="http://www.w3.org/2000/svg">
<path d="M15.2618 14.8026C14.2821 15.5093 13.0873 15.8537 11.8817 15.7768H9.0773V20.5H6.27288V7.21587H12.0589C13.2103 7.15482 14.3443 7.51707 15.247 8.23432C15.6683 8.64218 15.994 9.13828 16.2007 9.68697C16.4074 10.2357 16.49 10.8233 16.4426 11.4077C16.5185 12.0262 16.4516 12.6539 16.2469 13.2424C16.0422 13.831 15.7052 14.3647 15.2618 14.8026ZM13.0478 10.0203C12.6212 9.70755 12.1 9.55119 11.5718 9.57749H9.0773V13.4889H11.5718C12.105 13.5172 12.63 13.3491 13.0478 13.0166C13.2346 12.8214 13.3784 12.5891 13.4699 12.3349C13.5614 12.0807 13.5986 11.8101 13.5791 11.5406C13.6135 11.2634 13.5834 10.982 13.4913 10.7183C13.3991 10.4546 13.2473 10.2157 13.0478 10.0203ZM21.033 6.04982C21.1139 5.87347 21.122 5.67238 21.0557 5.49007C20.9894 5.30775 20.854 5.15888 20.6788 5.07565L10.8338 0.5L0.929703 5.07565C0.841509 5.11635 0.762196 5.17403 0.696292 5.24538C0.630389 5.31674 0.579185 5.40038 0.545606 5.49153C0.512026 5.58267 0.496727 5.67954 0.500583 5.7766C0.504439 5.87365 0.527374 5.969 0.568079 6.0572C0.608784 6.14539 0.666462 6.2247 0.737819 6.29061C0.809175 6.35651 0.892814 6.40771 0.98396 6.44129C1.0751 6.47487 1.17197 6.49017 1.26903 6.48632C1.36609 6.48246 1.46144 6.45952 1.54963 6.41882L10.8338 2.12362L20.1179 6.40406C20.2942 6.4849 20.4953 6.49305 20.6776 6.42676C20.86 6.36046 21.0088 6.22505 21.0921 6.04982H21.033Z" fill="#B74CA6"/>
</svg>
