<svg width="17" height="17" viewBox="0 0 17 17" fill="none" xmlns="http://www.w3.org/2000/svg">
<path d="M8.10156 0.799805C9.16243 0.799805 10.1798 1.22123 10.93 1.97138C11.6801 2.72152 12.1016 3.73894 12.1016 4.7998C12.1016 5.86067 11.6801 6.87809 10.93 7.62823C10.1798 8.37838 9.16243 8.7998 8.10156 8.7998C7.0407 8.7998 6.02328 8.37838 5.27314 7.62823C4.52299 6.87809 4.10156 5.86067 4.10156 4.7998C4.10156 3.73894 4.52299 2.72152 5.27314 1.97138C6.02328 1.22123 7.0407 0.799805 8.10156 0.799805ZM8.10156 10.7998C12.5216 10.7998 16.1016 12.5898 16.1016 14.7998V16.7998H0.101562V14.7998C0.101562 12.5898 3.68156 10.7998 8.10156 10.7998Z" fill="#1C1C1C"/>
</svg>
