<svg width="34" height="32" viewBox="0 0 34 32" fill="none" xmlns="http://www.w3.org/2000/svg">
<path d="M28.3359 8.00033H24.0859V5.33366C24.0859 3.85366 22.8251 2.66699 21.2526 2.66699H12.7526C11.1801 2.66699 9.91927 3.85366 9.91927 5.33366V8.00033H5.66927C4.09677 8.00033 2.83594 9.18699 2.83594 10.667V25.3337C2.83594 26.8137 4.09677 28.0003 5.66927 28.0003H28.3359C29.9084 28.0003 31.1693 26.8137 31.1693 25.3337V10.667C31.1693 9.18699 29.9084 8.00033 28.3359 8.00033ZM12.7526 5.33366H21.2526V8.00033H12.7526V5.33366ZM28.3359 25.3337H5.66927V22.667H28.3359V25.3337ZM28.3359 18.667H5.66927V10.667H9.91927V13.3337H12.7526V10.667H21.2526V13.3337H24.0859V10.667H28.3359V18.667Z" fill="#A91F8C"/>
</svg>
