<svg width="36" height="28" viewBox="0 0 36 28" fill="none" xmlns="http://www.w3.org/2000/svg">
<path d="M0.609375 3.59237H8.56934C8.60742 4.00673 8.67188 4.41521 8.7627 4.81193H1.21582V23.9282H34.7812V4.81193H34.7842H27.1113C27.2021 4.41521 27.2666 4.00673 27.3047 3.59237H35.3906H36V4.20362V24.5395V25.1507H35.3906H22.7256V26.4878H27.5918V28.0013H8.36426V26.4878H13.2305V25.1507H0.609375H0V24.5395V4.20362V3.59237H0.609375ZM8.23535 15.5735H6.21973V15.021C6.21973 14.7624 6.19336 14.5978 6.14355 14.5273C6.09375 14.4568 6.00879 14.4215 5.88867 14.4215C5.75977 14.4215 5.66016 14.4685 5.59277 14.5655C5.52539 14.6595 5.49316 14.8035 5.49316 14.9975C5.49316 15.2473 5.53125 15.4354 5.60742 15.5588C5.68066 15.6822 5.88574 15.835 6.22266 16.0143C7.18652 16.5286 7.79297 16.9547 8.04199 17.2838C8.29395 17.6129 8.41992 18.1448 8.41992 18.8766C8.41992 19.4085 8.34961 19.8023 8.21191 20.055C8.07129 20.3077 7.80469 20.5193 7.40625 20.6898C7.00781 20.8602 6.54492 20.9454 6.01465 20.9454C5.43457 20.9454 4.93945 20.8455 4.52637 20.6486C4.11621 20.4517 3.84961 20.2019 3.7207 19.8963C3.59473 19.5907 3.53027 19.1587 3.53027 18.5974V18.1066H5.5459V19.0147C5.5459 19.2939 5.5752 19.4761 5.63086 19.5554C5.68652 19.6348 5.78906 19.6759 5.93262 19.6759C6.07617 19.6759 6.18457 19.626 6.25488 19.5231C6.3252 19.4232 6.36035 19.2704 6.36035 19.0735C6.36035 18.6327 6.29297 18.3447 6.16113 18.2124C6.02051 18.0773 5.68359 17.851 5.14453 17.5307C4.60547 17.2103 4.25098 16.9782 4.0752 16.8312C3.90234 16.6872 3.75586 16.4874 3.6416 16.2317C3.52734 15.9761 3.46875 15.6499 3.46875 15.2532C3.46875 14.6801 3.55078 14.2628 3.71191 13.9983C3.87598 13.7338 4.13672 13.5281 4.50293 13.3783C4.86621 13.2284 5.30566 13.1549 5.82129 13.1549C6.38379 13.1549 6.86426 13.2372 7.25977 13.3988C7.65527 13.5634 7.91895 13.7662 8.04785 14.016C8.17676 14.2628 8.24121 14.6831 8.24121 15.2767V15.5735H8.23535ZM15.9082 13.3048V20.7838H14.0068L14.0039 15.7351L13.248 20.7838H11.918L11.1211 15.8497L11.1152 20.7838H9.21387V13.3048H12.0205C12.0996 13.7574 12.1846 14.2893 12.2783 14.8976L12.5859 16.796L13.0811 13.3048H15.9082ZM20.6426 13.3048L21.8848 20.7838H19.6641L19.5469 19.4408H18.7646L18.6475 20.7838H16.4004L17.502 13.3048H20.6426ZM19.4883 18.1155C19.3857 17.2691 19.2744 16.2171 19.1602 14.9652C18.9463 16.4022 18.8086 17.4513 18.7529 18.1155H19.4883ZM22.3682 13.3048H23.9062C24.9316 13.3048 25.623 13.3401 25.9863 13.4106C26.3496 13.4811 26.6455 13.6633 26.874 13.9543C27.1025 14.2452 27.2168 14.7095 27.2168 15.3443C27.2168 15.9261 27.1348 16.317 26.9736 16.5168C26.8125 16.7166 26.4961 16.8371 26.0186 16.8753C26.4492 16.9723 26.7393 17.0987 26.8857 17.2603C27.0322 17.419 27.126 17.5659 27.1611 17.7011C27.1992 17.8363 27.2168 18.2036 27.2168 18.8061V20.7809H25.2012V18.2918C25.2012 17.8921 25.166 17.6453 25.0957 17.5483C25.0283 17.4513 24.8438 17.4043 24.5479 17.4043V20.7809H22.3711V13.3048H22.3682ZM24.5449 14.5802V16.2435C24.7881 16.2435 24.958 16.2141 25.0547 16.1524C25.1514 16.0936 25.2012 15.8967 25.2012 15.5676V15.1562C25.2012 14.9181 25.1543 14.7624 25.0605 14.6889C24.9668 14.6155 24.791 14.5802 24.5449 14.5802ZM32.5371 13.3048V14.7977H31.2598V20.7809H29.0859V14.7977H27.7969V13.3048H32.5371ZM18 7.48616C18.4805 7.48616 18.9141 7.68305 19.2275 7.99749C19.541 8.31193 19.7373 8.7498 19.7373 9.22881C19.7373 9.71076 19.541 10.1457 19.2275 10.4601C18.9141 10.7746 18.4775 10.9715 18 10.9715C17.5195 10.9715 17.0859 10.7746 16.7725 10.4601C16.459 10.1457 16.2627 9.70782 16.2627 9.22881C16.2627 8.7498 16.459 8.31193 16.7725 7.99749C17.0859 7.68011 17.5195 7.48616 18 7.48616ZM15.0029 6.53989C14.833 6.67801 14.6221 6.73679 14.4199 6.71328C14.2266 6.69271 14.042 6.60161 13.9072 6.44879C13.8926 6.4341 13.8779 6.41647 13.8662 6.39884C13.7432 6.23427 13.6934 6.03444 13.7139 5.84048C13.7344 5.64653 13.8252 5.46139 13.9775 5.32621C13.9922 5.31151 14.0068 5.29976 14.0215 5.288C14.6396 4.78549 15.2871 4.40345 15.9521 4.14485C16.626 3.88036 17.3174 3.74518 18.0146 3.74518C18.7031 3.74224 19.3916 3.87155 20.0684 4.13309C20.7275 4.38876 21.375 4.77079 21.999 5.28507C22.1689 5.42319 22.2656 5.62008 22.2891 5.81991C22.3096 6.02268 22.2539 6.23427 22.1162 6.40471V6.40765C21.9785 6.5781 21.7852 6.67508 21.583 6.69565C21.3809 6.71622 21.1699 6.66038 21 6.52226C20.5137 6.1226 20.0186 5.82873 19.5205 5.63183C19.0166 5.432 18.5156 5.33796 18.0146 5.33796C17.5107 5.3409 17.0068 5.44082 16.5029 5.64359C15.9902 5.84048 15.4893 6.14317 15.0029 6.53989ZM12.4863 3.9744C12.4746 3.98616 12.46 3.99791 12.4453 4.00967C12.2871 4.13897 12.0908 4.19774 11.9004 4.18599C11.7041 4.17423 11.5107 4.08901 11.3672 3.93326C11.3525 3.92151 11.3438 3.90681 11.332 3.89212C11.2031 3.73343 11.1445 3.5336 11.1563 3.34258C11.168 3.13981 11.2588 2.93998 11.4229 2.79304C12.4775 1.8556 13.5674 1.15031 14.6748 0.680112C15.7852 0.209919 16.9189 -0.0192998 18.0557 0.00127117C19.1807 0.0189034 20.3057 0.280448 21.4131 0.791783C22.4912 1.29136 23.5576 2.02898 24.6006 3.01051L24.6211 3.02814C24.7676 3.17507 24.8438 3.36903 24.8496 3.56592C24.8555 3.76869 24.7852 3.9744 24.6357 4.13309L24.6182 4.15366C24.4688 4.3006 24.2783 4.37994 24.082 4.38582C23.8799 4.3917 23.6748 4.32117 23.5166 4.1713C22.6143 3.31613 21.7002 2.68137 20.7891 2.25526C19.8691 1.82327 18.9463 1.60581 18.0352 1.58817C17.1064 1.57348 16.1777 1.76743 15.2549 2.16122C14.3174 2.56676 13.3916 3.17214 12.4863 3.9744Z" fill="#B74CA6"/>
</svg>
