<svg width="151" height="146" viewBox="0 0 151 146" fill="none" xmlns="http://www.w3.org/2000/svg">
<ellipse cx="75.1768" cy="72.5688" rx="75.1768" ry="72.5688" fill="#F3F2F2"/>
<g clip-path="url(#clip0_1239_5308)">
<path d="M74.9966 78.1472C88.9483 78.1472 100.268 66.9032 100.268 53.0443C100.268 39.1854 88.9483 27.9414 74.9966 27.9414C61.0449 27.9414 49.7256 39.1854 49.7256 53.0443C49.7256 66.9032 61.0449 78.1472 74.9966 78.1472ZM97.4597 83.7257H87.79C83.8941 85.5038 79.5594 86.5149 74.9966 86.5149C70.4338 86.5149 66.1166 85.5038 62.2031 83.7257H52.5334C40.1261 83.7257 30.0703 93.7145 30.0703 106.039V108.829C30.0703 113.448 33.8434 117.196 38.494 117.196H111.499C116.15 117.196 119.923 113.448 119.923 108.829V106.039C119.923 93.7145 109.867 83.7257 97.4597 83.7257Z" fill="#E5E5ED"/>
</g>
<g clip-path="url(#clip1_1239_5308)">
<rect x="116.289" y="109.159" width="28.6197" height="30.4435" rx="10" fill="#A91F8C"/>
<path d="M129.406 118.038L136.561 125.649" stroke="#FDFBF7" stroke-linecap="round" stroke-linejoin="round"/>
<path d="M121.062 129.455L135.015 114.614C135.238 114.381 135.537 114.251 135.849 114.251C136.161 114.251 136.461 114.381 136.684 114.614L139.785 117.912C140.003 118.149 140.125 118.468 140.125 118.8C140.125 119.132 140.003 119.45 139.785 119.687L125.832 134.529H121.062V129.455Z" fill="#F1F1EF" stroke="#A91F8C" stroke-width="2" stroke-linecap="round" stroke-linejoin="round"/>
</g>
<defs>
<clipPath id="clip0_1239_5308">
<rect width="89.8525" height="89.2548" fill="white" transform="translate(30.0703 27.9414)"/>
</clipPath>
<clipPath id="clip1_1239_5308">
<rect x="116.289" y="109.159" width="28.6197" height="30.4435" rx="10" fill="white"/>
</clipPath>
</defs>
</svg>
