<svg width="16" height="21" viewBox="0 0 16 21" fill="none" xmlns="http://www.w3.org/2000/svg">
<path d="M5.64 14.86C6.94 16.16 9.06 16.16 10.36 14.86C11.66 13.56 11.66 11.44 10.36 10.14L5.64 14.86ZM14 0.51L2 0.5C0.89 0.5 0 1.39 0 2.5V18.5C0 19.61 0.89 20.5 2 20.5H14C15.11 20.5 16 19.61 16 18.5V2.5C16 1.39 15.11 0.51 14 0.51ZM7 3.5C7.55 3.5 8 3.95 8 4.5C8 5.05 7.55 5.5 7 5.5C6.45 5.5 6 5.05 6 4.5C6 3.95 6.45 3.5 7 3.5ZM4 3.5C4.55 3.5 5 3.95 5 4.5C5 5.05 4.55 5.5 4 5.5C3.45 5.5 3 5.05 3 4.5C3 3.95 3.45 3.5 4 3.5ZM8 17.5C5.24 17.5 3 15.26 3 12.5C3 9.74 5.24 7.5 8 7.5C10.76 7.5 13 9.74 13 12.5C13 15.26 10.76 17.5 8 17.5Z" fill="#B74CA6"/>
</svg>
