<svg width="29" height="21" viewBox="0 0 29 21" fill="none" xmlns="http://www.w3.org/2000/svg">
<path d="M7.47059 13.8529L5 11.3235C6.15686 10.1667 7.5149 9.2502 9.07412 8.57412C10.6333 7.89804 12.3145 7.55961 14.1176 7.55882C15.9216 7.55882 17.6031 7.90196 19.1624 8.58824C20.7216 9.27451 22.0792 10.2059 23.2353 11.3824L20.7647 13.8529C19.902 12.9902 18.902 12.3137 17.7647 11.8235C16.6275 11.3333 15.4118 11.0882 14.1176 11.0882C12.8235 11.0882 11.6078 11.3333 10.4706 11.8235C9.33333 12.3137 8.33333 12.9902 7.47059 13.8529ZM2.47059 8.85294L0 6.38235C1.80392 4.53922 3.91176 3.09804 6.32353 2.05882C8.73529 1.01961 11.3333 0.5 14.1176 0.5C16.902 0.5 19.5 1.01961 21.9118 2.05882C24.3235 3.09804 26.4314 4.53922 28.2353 6.38235L25.7647 8.85294C24.2549 7.34314 22.5047 6.16157 20.5141 5.30824C18.5235 4.4549 16.3914 4.02863 14.1176 4.02941C11.8431 4.02941 9.71059 4.45608 7.72 5.30941C5.72941 6.16275 3.97961 7.34392 2.47059 8.85294ZM14.1176 20.5L18.2647 16.3235C17.7353 15.7941 17.1176 15.3773 16.4118 15.0729C15.7059 14.7686 14.9412 14.6169 14.1176 14.6176C13.2941 14.6176 12.5294 14.7698 11.8235 15.0741C11.1176 15.3784 10.5 15.7949 9.97059 16.3235L14.1176 20.5Z" fill="#B74CA6"/>
</svg>
