<svg width="21" height="20" viewBox="0 0 21 20" fill="none" xmlns="http://www.w3.org/2000/svg">
<path fill-rule="evenodd" clip-rule="evenodd" d="M1.71094 10.0003C1.71094 5.40033 5.54237 1.66699 10.2738 1.66699C15.0138 1.66699 18.8538 5.40033 18.8538 10.0003C18.8538 14.6003 15.0138 18.3337 10.2738 18.3337C5.54237 18.3337 1.71094 14.6003 1.71094 10.0003ZM13.6852 6.66699H16.2138C15.3909 5.29199 14.0795 4.22533 12.5024 3.70033C13.0166 4.62533 13.4109 5.62533 13.6852 6.66699ZM10.2824 3.36699C10.9938 4.36699 11.5509 5.47533 11.9195 6.66699H8.64522C9.01379 5.47533 9.57094 4.36699 10.2824 3.36699ZM3.42522 10.0003C3.42522 10.5753 3.51094 11.1337 3.64808 11.667H6.54522C6.47665 11.117 6.42522 10.567 6.42522 10.0003C6.42522 9.43366 6.47665 8.88366 6.54522 8.33366H3.64808C3.51094 8.86699 3.42522 9.42533 3.42522 10.0003ZM4.35094 13.3337H6.87951C7.15379 14.3753 7.54808 15.3753 8.06237 16.3003C6.48522 15.7753 5.17379 14.717 4.35094 13.3337ZM4.35094 6.66699H6.87951C7.15379 5.62533 7.54808 4.62533 8.06237 3.70033C6.48522 4.22533 5.17379 5.28366 4.35094 6.66699ZM10.2824 16.6337C9.57094 15.6337 9.01379 14.5253 8.64522 13.3337H11.9195C11.5509 14.5253 10.9938 15.6337 10.2824 16.6337ZM8.13951 10.0003C8.13951 10.567 8.19951 11.117 8.27665 11.667H12.2881C12.3652 11.117 12.4252 10.567 12.4252 10.0003C12.4252 9.43366 12.3652 8.87533 12.2881 8.33366H8.27665C8.19951 8.87533 8.13951 9.43366 8.13951 10.0003ZM12.5024 16.3003C13.0166 15.3753 13.4109 14.3753 13.6852 13.3337H16.2138C15.3909 14.7087 14.0795 15.7753 12.5024 16.3003ZM14.1395 10.0003C14.1395 10.567 14.0881 11.117 14.0195 11.667H16.9166C17.0538 11.1337 17.1395 10.5753 17.1395 10.0003C17.1395 9.42533 17.0538 8.86699 16.9166 8.33366H14.0195C14.0881 8.88366 14.1395 9.43366 14.1395 10.0003Z" fill="white"/>
</svg>
